<?xml version="1.0" encoding="UTF-8"?>
<svg id="Brand_Manual" xmlns="http://www.w3.org/2000/svg" version="1.1" viewBox="0 0 841.89 595.28">
  <!-- Generator: Adobe Illustrator 29.3.1, SVG Export Plug-In . SVG Version: 2.1.0 Build 151)  -->
  <defs>
    <style>
      .st0 {
        fill: #b98f3e;
      }

      .st1, .st2 {
        isolation: isolate;
      }

      .st3 {
        fill: #fff;
      }

      .st2 {
        fill: #1d1e1e;
        font-family: Poppins-Bold, Poppins;
        font-size: 138.33px;
        font-weight: 700;
      }
    </style>
  </defs>
  <g class="st1">
    <text class="st2" transform="translate(66.27 -77.5)"><tspan x="0" y="0">AUTISYNC</tspan></text>
  </g>
  <g>
    <path class="st3" d="M406.53,63.79l3.17,1.06,14.74,26.34,10.54,17.91,15.81,27.38,14.74,25.28,15.81,27.38,29.48,50.56,31.61,54.79,7.37,12.64-2.1,2.1-45.29,7.37-34.75,7.37h-2.1l-10.54-17.91-31.61-54.79-15.81-26.34-8.44,13.7-15.81,27.38-14.74,25.28-15.81,27.38-14.74,25.28-9.47,15.81-4.2,3.17-45.29,15.81-34.75,13.7-27.38,11.57-8.44,3.17,2.1-5.27,13.7-24.24,14.74-25.28,15.81-27.38,14.74-25.28,31.61-54.79,14.74-25.28,31.61-54.79,14.74-25.28,15.81-27.38,14.74-25.28,13.7-23.18-.06.03Z"/>
    <path class="st0" d="M547.69,252.38l6.33,2.1,94.81,42.15,42.15,18.97,43.19,18.97,42.15,18.97,37.92,16.84,16.84,7.37v1.07l-12.64-1.07-42.15-4.2-31.61-2.1-24.24-1.07h-88.48l-44.25,2.1-51.62,4.2-58.99,7.37-47.39,7.37-68.47,13.7-58.99,14.74-54.79,15.81-45.29,14.74-48.46,17.91-29.48,11.57-34.75,14.74-30.55,13.7-24.24,11.57-23.18,11.57-2.1-1.07,15.81-10.54,18.97-11.57,26.34-15.81,26.34-14.74,23.18-12.64,58.99-29.48,30.55-13.7,29.48-12.64,37.92-14.74,31.61-11.57,43.19-14.74,38.98-11.57,63.2-15.81,50.56-10.54,45.29-7.37,43.19-5.27v-2.1l-12.64-17.91-29.48-40.02-3.17-5.27-.03-.03Z"/>
    <path class="st3" d="M591.95,386.14l4.2,1.07,14.74,25.28,63.2,109.55,4.2,8.44h-92.71l-8.44-13.7-15.81-27.38-14.74-25.28-31.61-54.79-7.37-12.64v-2.1l25.28-3.17,58.99-5.27h.06Z"/>
    <path class="st3" d="M275.9,442h4.2l-2.1,5.27-11.57,21.08-9.47,15.81-15.81,27.38-10.54,17.91-1.06,1.07h-92.71l7.37-14.74,14.74-25.28,6.33-11.57,40.02-14.74,48.46-15.81,22.11-6.33.03-.03Z"/>
  </g>
</svg>