<?xml version="1.0" encoding="utf-8"?>
<!-- Generator: Adobe Illustrator 24.2.0, SVG Export Plug-In . SVG Version: 6.00 Build 0)  -->
<svg version="1.1" id="Layer_1" xmlns="http://www.w3.org/2000/svg" xmlns:xlink="http://www.w3.org/1999/xlink" x="0px" y="0px"
	 viewBox="0 0 5000 5000" style="enable-background:new 0 0 5000 5000;" xml:space="preserve">
<style type="text/css">
	.st0{display:none;}
	.st1{display:inline;}
	.st2{display:none;fill:none;stroke:#000000;stroke-width:8;stroke-miterlimit:10;}
	.st3{font-family:'AutorichSansLite';}
	.st4{font-size:552.1631px;}
	.st5{letter-spacing:32;}
	.st6{fill-rule:evenodd;clip-rule:evenodd;fill:#2B4F9E;}
	.st7{fill-rule:evenodd;clip-rule:evenodd;fill:#223F9B;}
	.st8{fill-rule:evenodd;clip-rule:evenodd;fill:#BD2030;}
	.st9{fill-rule:evenodd;clip-rule:evenodd;fill:#FFFFFF;}
</style>
<image style="display:none;overflow:visible;enable-background:new    ;" width="193" height="193" xlink:href="213271678608770A.png"  transform="matrix(18.601 0 0 18.601 5750.0073 0)">
</image>
<g class="st0">
	<text transform="matrix(1 0 0 1 6470.5542 4187.4292)" class="st1 st3" style="font-size:404px;">SEGUCYBER</text>
	<g class="st1">
		<g>
			<path d="M6506.6,4287.2c2.5,11.2,10,17.5,23.7,17.5c15,0,20.9-7.3,20.9-16.3c0-9.4-4.4-15-23-19.6c-19.6-4.8-27.2-11.3-27.2-23.9
				c0-12.2,9-23,28.2-23c20.1,0,28.4,12,29.6,23h-9.2c-1.8-8.7-7.4-15.3-20.8-15.3c-11.8,0-18.3,5.4-18.3,14.6
				c0,9,5.4,12.6,21.3,16.5c24.9,6.1,28.9,16,28.9,26.9c0,13.5-9.9,24.7-30.8,24.7c-22,0-30.8-12.5-32.5-25.1L6506.6,4287.2
				L6506.6,4287.2z"/>
			<path d="M6632.5,4279.4c0,17.9-10.1,33.3-29.2,33.3c-17.6,0-28.4-14.1-28.4-33.2c0-18.4,10.4-33.3,29.1-33.3
				C6621.1,4246.3,6632.5,4259.4,6632.5,4279.4z M6583.7,4279.5c0,14.5,7.6,25.8,20.1,25.8c12.7,0,19.9-10.5,19.9-25.8
				c0-14.6-7.1-25.8-20.2-25.8C6590.2,4253.7,6583.7,4264.6,6583.7,4279.5z"/>
			<path d="M6650.4,4311.2v-92.7h8.4v92.7H6650.4z"/>
			<path d="M6730.6,4292.7c0,6.2,0.1,15.5,0.1,18.5h-8.2c-0.2-1.7-0.4-5.7-0.4-10.3c-2.9,7.3-9.2,11.9-19.9,11.9
				c-9.8,0-20.9-4.4-20.9-23.1v-41.9h8.3v40c0,8.8,2.8,17.2,14.4,17.2c13,0,18-7.3,18-24.4v-32.8h8.4L6730.6,4292.7L6730.6,4292.7z"
				/>
			<path d="M6801.5,4292.2c-2.9,11-10.2,20.5-25.3,20.5c-16.6,0-27.6-12.1-27.6-32.9c0-17.6,9.7-33.5,28.4-33.5
				c17.1,0,23.6,12.1,24.6,20.7h-8.5c-1.8-7-6.2-13.3-16.3-13.3c-12.4,0-19.5,10.6-19.5,25.8c0,14.8,6.7,25.8,18.9,25.8
				c8.6,0,13.8-4.5,16.8-13.1L6801.5,4292.2L6801.5,4292.2z M6781.7,4311.2l-5.2,6.7c4.6,0.6,12.7,3.1,12.7,11.6
				c0,9.7-8.5,12-14.7,12c-4.5,0-7.5-0.8-9.1-1.6v-6.8c2.2,1,6.5,1.6,8.7,1.6c4.8,0,7.2-1.6,7.2-4.8c0-5.1-6.8-6.2-13.8-6.2v-3.2
				l7.8-10.6L6781.7,4311.2z"/>
			<path d="M6863.6,4298.3c0,5.7,0.5,10.9,0.9,12.9h-8.1c-0.5-1.5-0.9-4.4-1.1-9.1c-2.2,4.5-7.5,10.6-20.2,10.6
				c-14.8,0-21.2-9.6-21.2-19.2c0-14,10.9-20.4,29.9-20.4c4.9,0,9,0,11.5,0v-6c0-6-1.9-13.7-15.1-13.7c-11.8,0-13.6,6-14.9,11.1
				h-8.3c0.8-7.8,5.6-18.2,23.4-18.2c14.9,0,23.3,6.2,23.3,20.4L6863.6,4298.3L6863.6,4298.3z M6822.4,4234.2v-2.4
				c0-8.4,3.9-11.5,9.7-11.5c6.8,0,13.2,6.6,17.8,6.6c2.5,0,3.8-1.3,3.8-5.6v-1.4h6.3v2.4c0,8.8-3.8,12-9.7,12c-7,0-12.3-6.7-18-6.7
				c-2.2,0-3.5,1.3-3.5,4.6v2.1L6822.4,4234.2L6822.4,4234.2z M6855.4,4279.5c-2.2,0-7.6,0-11.4,0c-13.4,0-21.3,3.6-21.3,13.6
				c0,7.4,5.2,12.5,13.6,12.5c16.8,0,19.1-11.2,19.1-23.9L6855.4,4279.5L6855.4,4279.5z"/>
			<path d="M6939.3,4279.4c0,17.9-10.1,33.3-29.2,33.3c-17.6,0-28.4-14.1-28.4-33.2c0-18.4,10.4-33.3,29.1-33.3
				C6927.9,4246.3,6939.3,4259.4,6939.3,4279.4z M6890.5,4279.5c0,14.5,7.6,25.8,20.1,25.8c12.7,0,19.9-10.5,19.9-25.8
				c0-14.6-7.1-25.8-20.2-25.8C6897,4253.7,6890.5,4264.6,6890.5,4279.5z"/>
			<path d="M7000.9,4302.5v33.8h-8.4v-73c0-5.2,0-10.7-0.1-15.5h8.2c0.2,2.3,0.3,6.1,0.3,10.8c3.7-7,10.4-12.3,21.6-12.3
				c14.8,0,25.3,12.4,25.3,31.6c0,22.7-12.2,34.9-27.5,34.9C7009.5,4312.7,7003.9,4308,7000.9,4302.5z M7039,4278.2
				c0-14.1-6.6-24.3-18.4-24.3c-14.3,0-20.1,9-20.1,25.4c0,16.1,4.6,26,19.3,26C7032.2,4305.2,7039,4294.8,7039,4278.2z"/>
			<path d="M7111,4298.3c0,5.7,0.5,10.9,0.9,12.9h-8.1c-0.5-1.5-0.9-4.4-1.1-9.1c-2.2,4.5-7.5,10.6-20.2,10.6
				c-14.8,0-21.2-9.6-21.2-19.2c0-14,10.9-20.4,29.9-20.4c4.9,0,9,0,11.5,0v-6c0-6-1.9-13.7-15.1-13.7c-11.8,0-13.6,6-14.9,11.1
				h-8.3c0.8-7.8,5.6-18.2,23.4-18.2c14.9,0,23.3,6.2,23.3,20.4L7111,4298.3L7111,4298.3z M7102.7,4279.5c-2.2,0-7.6,0-11.4,0
				c-13.4,0-21.3,3.6-21.3,13.6c0,7.4,5.2,12.5,13.6,12.5c16.8,0,19.1-11.2,19.1-23.9V4279.5z"/>
			<path d="M7133.8,4265c0-9.8-0.1-14.6-0.1-17.2h8.3c0.1,1.9,0.3,6.4,0.3,13.6c3.5-9.1,11.4-14.7,21.7-15.1v8.7
				c-13.1,0.7-21.7,8.7-21.7,24.2v32h-8.4V4265z"/>
			<path d="M7224.4,4298.3c0,5.7,0.5,10.9,0.9,12.9h-8.1c-0.5-1.5-0.9-4.4-1.1-9.1c-2.2,4.5-7.5,10.6-20.2,10.6
				c-14.8,0-21.2-9.6-21.2-19.2c0-14,10.9-20.4,29.9-20.4c4.9,0,9,0,11.5,0v-6c0-6-1.9-13.7-15.1-13.7c-11.8,0-13.6,6-14.9,11.1
				h-8.3c0.8-7.8,5.6-18.2,23.4-18.2c14.9,0,23.3,6.2,23.3,20.4L7224.4,4298.3L7224.4,4298.3z M7216.1,4279.5c-2.2,0-7.6,0-11.4,0
				c-13.4,0-21.3,3.6-21.3,13.6c0,7.4,5.2,12.5,13.6,12.5c16.8,0,19.1-11.2,19.1-23.9V4279.5z"/>
			<path d="M7284.9,4293.4c2,7.6,7.5,12.2,16.9,12.2c10.4,0,14.5-4.7,14.5-11.1c0-6.6-3-9.8-16.2-13c-17.2-4.1-21.1-9.4-21.1-17.8
				c0-8.9,6.6-17.3,21.8-17.3c15.2,0,22,9.1,23,18h-8.3c-1-4.8-4.7-11-15-11c-10,0-13,4.9-13,9.6c0,5.3,2.8,8,15,10.9
				c18.5,4.4,22.7,10.5,22.7,20c0,11.3-9.1,18.9-23.6,18.9c-15.4,0-23.4-7.9-25.1-19.3L7284.9,4293.4L7284.9,4293.4z"/>
			<path d="M7392,4292.7c0,6.2,0.1,15.5,0.1,18.5h-8.2c-0.2-1.7-0.4-5.7-0.4-10.3c-2.9,7.3-9.2,11.9-19.9,11.9
				c-9.8,0-20.9-4.4-20.9-23.1v-41.9h8.3v40c0,8.8,2.8,17.2,14.4,17.2c13,0,18-7.3,18-24.4v-32.8h8.4V4292.7z"/>
			<path d="M7459.9,4298.3c0,5.7,0.5,10.9,0.9,12.9h-8.1c-0.5-1.5-0.9-4.4-1.1-9.1c-2.2,4.5-7.5,10.6-20.2,10.6
				c-14.8,0-21.2-9.6-21.2-19.2c0-14,10.9-20.4,29.9-20.4c4.9,0,9,0,11.5,0v-6c0-6-1.9-13.7-15.1-13.7c-11.8,0-13.6,6-14.9,11.1
				h-8.3c0.8-7.8,5.6-18.2,23.4-18.2c14.9,0,23.3,6.2,23.3,20.4L7459.9,4298.3L7459.9,4298.3z M7451.6,4279.5c-2.2,0-7.6,0-11.4,0
				c-13.4,0-21.3,3.6-21.3,13.6c0,7.4,5.2,12.5,13.6,12.5c16.8,0,19.1-11.2,19.1-23.9L7451.6,4279.5L7451.6,4279.5z"/>
			<path d="M7522.9,4287.2c2.5,11.2,10,17.5,23.7,17.5c15,0,20.9-7.3,20.9-16.3c0-9.4-4.4-15-23-19.6c-19.6-4.8-27.2-11.3-27.2-23.9
				c0-12.2,9-23,28.2-23c20.1,0,28.4,12,29.6,23h-9.2c-1.8-8.7-7.4-15.3-20.8-15.3c-11.8,0-18.3,5.4-18.3,14.6
				c0,9,5.4,12.6,21.3,16.5c24.9,6.1,28.9,16,28.9,26.9c0,13.5-9.9,24.7-30.8,24.7c-22,0-30.8-12.5-32.5-25.1L7522.9,4287.2
				L7522.9,4287.2z"/>
			<path d="M7599.7,4280.8c0.1,14.8,7.5,24.5,19.1,24.5c11.1,0,14.7-6,16.9-11h8.5c-2.6,8.3-9.3,18.4-25.8,18.4
				c-19.6,0-27.4-16.4-27.4-32.6c0-18.5,9.2-33.8,28.1-33.8c20,0,26.4,16.7,26.4,29.3c0,1.9,0,3.5-0.1,5.2L7599.7,4280.8
				L7599.7,4280.8z M7637,4274.2c-0.1-11.6-6.2-20.8-18-20.8c-12.2,0-17.7,8.5-18.9,20.8H7637z"/>
			<path d="M7713.6,4306.2c0,20.3-8.7,31.4-28.2,31.4c-17.7,0-24.1-10-25.5-19.1h8.6c2.1,7.9,8.6,11.9,17.2,11.9
				c15.5,0,19.6-10,19.6-25.4v-5.9c-3.4,7.7-9.4,12-20.6,12c-15.2,0-26.2-12.4-26.2-31.5c0-21,12.1-33.3,27.2-33.3
				c12.5,0,17.9,5.9,19.5,10.6c0.1-3.3,0.3-7.6,0.4-9.1h8c0,2.9-0.2,12.3-0.2,18.4L7713.6,4306.2L7713.6,4306.2z M7667.4,4279.2
				c0,14.3,7.5,24.4,18.9,24.4c14.9,0,19.3-9.9,19.3-25.3c0-15.6-4.5-24.5-18.9-24.5C7673.4,4253.7,7667.4,4265,7667.4,4279.2z"/>
			<path d="M7785.2,4292.7c0,6.2,0.1,15.5,0.1,18.5h-8.2c-0.2-1.7-0.4-5.7-0.4-10.3c-2.9,7.3-9.2,11.9-19.9,11.9
				c-9.8,0-20.9-4.4-20.9-23.1v-41.9h8.3v40c0,8.8,2.8,17.2,14.4,17.2c13,0,18-7.3,18-24.4v-32.8h8.4V4292.7z"/>
			<path d="M7807.9,4265c0-9.8-0.1-14.6-0.1-17.2h8.3c0.1,1.9,0.3,6.4,0.3,13.6c3.5-9.1,11.4-14.7,21.7-15.1v8.7
				c-13.1,0.7-21.7,8.7-21.7,24.2v32h-8.4L7807.9,4265L7807.9,4265z"/>
			<path d="M7898.5,4298.3c0,5.7,0.5,10.9,0.9,12.9h-8.1c-0.5-1.5-0.9-4.4-1.1-9.1c-2.2,4.5-7.5,10.6-20.2,10.6
				c-14.8,0-21.2-9.6-21.2-19.2c0-14,10.9-20.4,29.9-20.4c4.9,0,9,0,11.5,0v-6c0-6-1.9-13.7-15.1-13.7c-11.8,0-13.6,6-14.9,11.1
				h-8.3c0.8-7.8,5.6-18.2,23.4-18.2c14.9,0,23.3,6.2,23.3,20.4L7898.5,4298.3L7898.5,4298.3z M7890.2,4279.5c-2.2,0-7.6,0-11.4,0
				c-13.4,0-21.3,3.6-21.3,13.6c0,7.4,5.2,12.5,13.6,12.5c16.8,0,19.1-11.2,19.1-23.9L7890.2,4279.5L7890.2,4279.5z"/>
			<path d="M7921.3,4263.8c0-5.5,0-11-0.1-16h8.2c0.3,2,0.4,9.5,0.3,11.3c2.7-6,7.9-12.8,20.5-12.8c11.6,0,21.2,6.8,21.2,24v41h-8.4
				v-39.8c0-10.5-4.3-17.5-14.7-17.5c-13.7,0-18.7,11-18.7,24.3v32.9h-8.4L7921.3,4263.8L7921.3,4263.8z"/>
			<path d="M8042.5,4292.2c-2.9,11-10.2,20.5-25.3,20.5c-16.6,0-27.6-12.1-27.6-32.9c0-17.6,9.7-33.5,28.4-33.5
				c17.1,0,23.6,12.1,24.6,20.7h-8.5c-1.8-7-6.2-13.3-16.3-13.3c-12.4,0-19.5,10.6-19.5,25.8c0,14.8,6.7,25.8,18.9,25.8
				c8.6,0,13.8-4.5,16.8-13.1L8042.5,4292.2L8042.5,4292.2z M8022.7,4311.2l-5.2,6.7c4.6,0.6,12.7,3.1,12.7,11.6
				c0,9.7-8.5,12-14.7,12c-4.5,0-7.5-0.8-9.1-1.6v-6.8c2.2,1,6.5,1.6,8.7,1.6c4.8,0,7.2-1.6,7.2-4.8c0-5.1-6.8-6.2-13.8-6.2v-3.2
				l7.8-10.6L8022.7,4311.2z"/>
			<path d="M8104.6,4298.3c0,5.7,0.5,10.9,0.9,12.9h-8.1c-0.5-1.5-0.9-4.4-1.1-9.1c-2.2,4.5-7.5,10.6-20.2,10.6
				c-14.8,0-21.2-9.6-21.2-19.2c0-14,10.9-20.4,29.9-20.4c4.9,0,9,0,11.5,0v-6c0-6-1.9-13.7-15.1-13.7c-11.8,0-13.6,6-14.9,11.1
				h-8.3c0.8-7.8,5.6-18.2,23.4-18.2c14.9,0,23.3,6.2,23.3,20.4L8104.6,4298.3L8104.6,4298.3z M8096.3,4279.5c-2.2,0-7.6,0-11.4,0
				c-13.4,0-21.3,3.6-21.3,13.6c0,7.4,5.2,12.5,13.6,12.5c16.8,0,19.1-11.2,19.1-23.9V4279.5z"/>
			<path d="M8232.6,4287c-4,14.4-14.7,25.2-33.9,25.2c-25.7,0-39-20-39-44.8c0-23.8,13.2-45.4,39.3-45.4c19.8,0,31,11.1,33.8,25.8
				h-9c-3.6-10.6-10.6-18-25.2-18c-20.8,0-29.4,18.9-29.4,37.4c0,18.1,8.4,37.2,29.9,37.2c14,0,20.7-7.6,24.6-17.4L8232.6,4287
				L8232.6,4287z"/>
			<path d="M8250.9,4218.5h8.4v12.9h-8.4V4218.5z M8250.9,4247.8h8.4v63.4h-8.4V4247.8z"/>
			<path d="M8282.2,4218.5h8.4v39.2c3-5.9,9-11.4,21-11.4c15.4,0,26,12.7,26,31.9c0,19.7-9.8,34.6-27.6,34.6
				c-10.4,0-16.2-4-19.4-10.8c0,3.7-0.2,7.5-0.3,9.3h-8.2c0.1-7.2,0.1-14.3,0.1-21.5L8282.2,4218.5L8282.2,4218.5z M8328.8,4278.3
				c0-14.9-7.1-24.6-18.7-24.6c-14.8,0-20,10-20,25.9c0,14.2,4.6,25.6,19.3,25.6C8321.5,4305.2,8328.8,4295.1,8328.8,4278.3z"/>
			<path d="M8359.2,4280.8c0.1,14.8,7.5,24.5,19.1,24.5c11.1,0,14.8-6,16.9-11h8.5c-2.6,8.3-9.3,18.4-25.8,18.4
				c-19.6,0-27.4-16.4-27.4-32.6c0-18.5,9.2-33.8,28.1-33.8c20,0,26.4,16.7,26.4,29.3c0,1.9,0,3.5-0.2,5.2L8359.2,4280.8
				L8359.2,4280.8z M8396.5,4274.2c-0.1-11.6-6.2-20.8-18-20.8c-12.2,0-17.7,8.5-18.9,20.8H8396.5z"/>
			<path d="M8422.9,4265c0-9.8-0.1-14.6-0.1-17.2h8.3c0.2,1.9,0.3,6.4,0.3,13.6c3.5-9.1,11.4-14.7,21.7-15.1v8.7
				c-13.1,0.7-21.7,8.7-21.7,24.2v32h-8.4V4265z"/>
			<path d="M8468.3,4263.8c0-5.5,0-11-0.1-16h8.2c0.3,2,0.4,9.5,0.3,11.3c2.7-6,7.9-12.8,20.5-12.8c11.6,0,21.2,6.8,21.2,24v41h-8.4
				v-39.8c0-10.5-4.3-17.5-14.7-17.5c-13.7,0-18.7,11-18.7,24.3v32.9h-8.4L8468.3,4263.8L8468.3,4263.8z"/>
			<path d="M8545,4280.8c0.1,14.8,7.5,24.5,19.1,24.5c11.1,0,14.7-6,16.9-11h8.5c-2.6,8.3-9.3,18.4-25.8,18.4
				c-19.6,0-27.4-16.4-27.4-32.6c0-18.5,9.2-33.8,28.1-33.8c20,0,26.4,16.7,26.4,29.3c0,1.9,0,3.5-0.2,5.2L8545,4280.8L8545,4280.8z
				 M8582.2,4274.2c-0.1-11.6-6.2-20.8-18-20.8c-12.2,0-17.7,8.5-18.9,20.8H8582.2z M8585.2,4217.2l-19,19.6h-8.4l16.8-19.6H8585.2z
				"/>
			<path d="M8599.7,4247.8h11.4v-19.3h8.4v19.3h14.6v7.3h-14.6v39.4c0,6.7,1.5,10.3,7.4,10.3c1.7,0,4.2-0.1,6.1-0.7v6.8
				c-2.4,0.9-5.8,1.1-8.6,1.1c-8.9,0-13.4-4.5-13.4-14.9v-42.1h-11.4L8599.7,4247.8L8599.7,4247.8z"/>
			<path d="M8649.6,4218.5h8.4v12.9h-8.4V4218.5z M8649.6,4247.8h8.4v63.4h-8.4V4247.8z"/>
			<path d="M8729,4292.2c-2.9,11-10.2,20.5-25.3,20.5c-16.6,0-27.7-12.1-27.7-32.9c0-17.6,9.7-33.5,28.4-33.5
				c17.1,0,23.6,12.1,24.6,20.7h-8.5c-1.8-7-6.2-13.3-16.3-13.3c-12.4,0-19.5,10.6-19.5,25.8c0,14.8,6.7,25.8,18.9,25.8
				c8.7,0,13.8-4.5,16.8-13.1L8729,4292.2L8729,4292.2z"/>
			<path d="M8791.2,4298.3c0,5.7,0.5,10.9,0.9,12.9h-8.1c-0.5-1.5-0.9-4.4-1.1-9.1c-2.2,4.5-7.5,10.6-20.2,10.6
				c-14.8,0-21.2-9.6-21.2-19.2c0-14,10.9-20.4,29.9-20.4c4.9,0,9,0,11.5,0v-6c0-6-1.8-13.7-15.1-13.7c-11.8,0-13.7,6-14.9,11.1
				h-8.3c0.8-7.8,5.6-18.2,23.4-18.2c14.9,0,23.3,6.2,23.3,20.4L8791.2,4298.3L8791.2,4298.3z M8782.9,4279.5c-2.2,0-7.6,0-11.4,0
				c-13.4,0-21.3,3.6-21.3,13.6c0,7.4,5.2,12.5,13.6,12.5c16.8,0,19.1-11.2,19.1-23.9L8782.9,4279.5L8782.9,4279.5z"/>
		</g>
	</g>
</g>
<polygon class="st2" points="8420,604 7590,157 7590,2384 8420,1534 8164,1540 7831,1905 7831,508 8420,836 "/>
<polygon class="st2" points="7562,157 7562,501 6999,725 6999,955 7562,740 7563,2384 6739,1520 6997,1522 7343,1891 7343,1128 
	6739,1341 6739,606 "/>
<g id="logo">
	<g>
		<text transform="matrix(1 0 0 1 761.9663 4727.5293)" class="st3 st4 st5">SEGUCYBER</text>
		<g>
			<g>
				<path d="M854.2,4857.6l-14.2,39.1h-12.3l43.5-120.2h14.9l45.4,120.2h-13.2l-14.6-39.1H854.2z M900.1,4846.7
					c-12.5-33.9-19.1-50.9-21.6-59.4h-0.2c-2.9,9.6-10.3,30.5-20.5,59.4H900.1z"/>
				<path d="M1010.2,4863.8c3.4,15.3,13.7,24,32.4,24c20.5,0,28.5-10,28.5-22.3c0-12.9-6-20.6-31.4-26.8
					c-26.7-6.6-37.2-15.5-37.2-32.6c0-16.7,12.3-31.4,38.5-31.4c27.4,0,38.9,16.3,40.4,31.5H1069c-2.5-11.9-10.1-20.9-28.4-20.9
					c-16.1,0-25,7.4-25,19.9c0,12.4,7.4,17.2,29.1,22.5c34,8.4,39.5,21.8,39.5,36.7c0,18.5-13.6,33.7-42.1,33.7
					c-30.1,0-42-17.1-44.4-34.2L1010.2,4863.8L1010.2,4863.8z"/>
				<path d="M1183.5,4853.2c0,24.5-13.8,45.6-39.9,45.6c-24,0-38.8-19.2-38.8-45.3c0-25.1,14.2-45.4,39.7-45.4
					C1168,4807.9,1183.5,4826,1183.5,4853.2z M1116.8,4853.3c0,19.9,10.4,35.3,27.4,35.3c17.4,0,27.2-14.4,27.2-35.2
					c0-20-9.7-35.3-27.6-35.3C1125.8,4818.1,1116.8,4833,1116.8,4853.3z"/>
				<path d="M1209.2,4896.7V4770h11.5v126.7H1209.2z"/>
				<path d="M1320.1,4871.4c0,8.5,0.1,21.2,0.2,25.3h-11.2c-0.3-2.3-0.5-7.8-0.5-14.1c-3.9,9.9-12.5,16.2-27.1,16.2
					c-13.5,0-28.5-6-28.5-31.5V4810h11.4v54.6c0,12.1,3.8,23.5,19.7,23.5c17.8,0,24.6-10,24.6-33.3V4810h11.5L1320.1,4871.4
					L1320.1,4871.4z"/>
				<path d="M1418.2,4870.7c-3.9,15.1-14,28-34.6,28c-22.7,0-37.8-16.6-37.8-45c0-24.1,13.2-45.8,38.9-45.8
					c23.4,0,32.2,16.6,33.6,28.3h-11.6c-2.4-9.5-8.5-18.2-22.2-18.2c-17,0-26.6,14.5-26.6,35.2c0,20.2,9.1,35.3,25.9,35.3
					c11.8,0,18.9-6.1,22.9-17.9L1418.2,4870.7L1418.2,4870.7z M1391.1,4896.7l-7.1,9.2c6.3,0.8,17.4,4.3,17.4,15.9
					c0,13.3-11.6,16.4-20.1,16.4c-6.2,0-10.2-1.1-12.5-2.2v-9.3c3.1,1.4,8.9,2.2,11.9,2.2c6.5,0,9.8-2.2,9.8-6.6
					c0-6.9-9.2-8.5-18.9-8.5v-4.3l10.6-14.5L1391.1,4896.7z"/>
				<path d="M1504.3,4879.1c0,7.7,0.7,14.9,1.2,17.6h-11.1c-0.7-2-1.2-6-1.5-12.4c-3,6.1-10.3,14.5-27.7,14.5
					c-20.3,0-28.9-13.1-28.9-26.2c0-19.2,14.9-27.9,40.8-27.9c6.7,0,12.3,0,15.7,0v-8.2c0-8.2-2.5-18.8-20.7-18.8
					c-16.1,0-18.6,8.3-20.4,15.2h-11.3c1.1-10.6,7.7-24.9,32-24.9c20.4,0,31.8,8.5,31.8,27.8L1504.3,4879.1L1504.3,4879.1z
					 M1448,4791.4v-3.3c0-11.4,5.3-15.7,13.2-15.7c9.3,0,18,9.1,24.4,9.1c3.4,0,5.1-1.8,5.1-7.7v-2h8.6v3.2c0,12-5.1,16.5-13.2,16.5
					c-9.5,0-16.8-9.2-24.5-9.2c-3,0-4.8,1.8-4.8,6.2v2.8H1448z M1493,4853.3c-3.1,0-10.4,0-15.6,0c-18.3,0-29.1,4.9-29.1,18.6
					c0,10.1,7.1,17.1,18.5,17.1c23,0,26.2-15.4,26.2-32.7L1493,4853.3L1493,4853.3z"/>
				<path d="M1608.9,4853.2c0,24.5-13.8,45.6-39.9,45.6c-24,0-38.8-19.2-38.8-45.3c0-25.1,14.2-45.4,39.7-45.4
					C1593.4,4807.9,1608.9,4826,1608.9,4853.2z M1542.1,4853.3c0,19.9,10.4,35.3,27.4,35.3c17.4,0,27.2-14.4,27.2-35.2
					c0-20-9.7-35.3-27.6-35.3C1551.1,4818.1,1542.1,4833,1542.1,4853.3z"/>
				<path d="M1695.4,4884.8v46.2h-11.5v-99.8c0-7.1,0-14.6-0.2-21.2h11.3c0.3,3.1,0.4,8.3,0.4,14.7c5.1-9.6,14.3-16.8,29.5-16.8
					c20.3,0,34.6,17,34.6,43.2c0,31.1-16.7,47.6-37.7,47.6C1707.3,4898.7,1699.6,4892.4,1695.4,4884.8z M1747.6,4851.5
					c0-19.3-9.1-33.2-25.2-33.2c-19.6,0-27.5,12.3-27.5,34.8c0,22,6.3,35.5,26.4,35.5C1738.2,4888.5,1747.6,4874.3,1747.6,4851.5z"
					/>
				<path d="M1847.1,4879.1c0,7.7,0.7,14.9,1.2,17.6h-11.1c-0.7-2-1.2-6-1.5-12.4c-3,6.1-10.3,14.5-27.7,14.5
					c-20.3,0-28.9-13.1-28.9-26.2c0-19.2,14.9-27.9,40.8-27.9c6.7,0,12.3,0,15.7,0v-8.2c0-8.2-2.5-18.8-20.7-18.8
					c-16.1,0-18.6,8.3-20.4,15.2h-11.3c1.1-10.6,7.7-24.9,32-24.9c20.4,0,31.8,8.5,31.8,27.8L1847.1,4879.1L1847.1,4879.1z
					 M1835.9,4853.3c-3.1,0-10.4,0-15.6,0c-18.3,0-29.1,4.9-29.1,18.6c0,10.1,7.1,17.1,18.5,17.1c23,0,26.2-15.4,26.2-32.7
					L1835.9,4853.3L1835.9,4853.3z"/>
				<path d="M1879.6,4833.6c0-13.4-0.1-19.9-0.2-23.6h11.3c0.2,2.6,0.4,8.7,0.4,18.6c4.8-12.4,15.5-20.1,29.7-20.7v11.9
					c-17.9,0.9-29.7,11.9-29.7,33.1v43.7h-11.5L1879.6,4833.6L1879.6,4833.6z"/>
				<path d="M2004.5,4879.1c0,7.7,0.7,14.9,1.2,17.6h-11.1c-0.7-2-1.2-6-1.5-12.4c-3,6.1-10.3,14.5-27.7,14.5
					c-20.3,0-28.9-13.1-28.9-26.2c0-19.2,14.9-27.9,40.8-27.9c6.7,0,12.3,0,15.7,0v-8.2c0-8.2-2.5-18.8-20.7-18.8
					c-16.1,0-18.6,8.3-20.4,15.2h-11.3c1.1-10.6,7.7-24.9,32-24.9c20.4,0,31.8,8.5,31.8,27.8L2004.5,4879.1L2004.5,4879.1z
					 M1993.3,4853.3c-3.1,0-10.4,0-15.6,0c-18.3,0-29.1,4.9-29.1,18.6c0,10.1,7.1,17.1,18.5,17.1c23,0,26.2-15.4,26.2-32.7
					L1993.3,4853.3L1993.3,4853.3z"/>
				<path d="M2089.7,4872.3c2.7,10.4,10.3,16.7,23.1,16.7c14.2,0,19.9-6.4,19.9-15.2c0-9.1-4.1-13.4-22.2-17.8
					c-23.5-5.7-28.8-12.8-28.8-24.4c0-12.1,9-23.7,29.8-23.7c20.8,0,30.1,12.4,31.4,24.6h-11.3c-1.4-6.5-6.5-15-20.5-15
					c-13.7,0-17.7,6.7-17.7,13.1c0,7.3,3.9,10.9,20.5,14.9c25.3,6,31,14.4,31,27.3c0,15.5-12.5,25.8-32.2,25.8
					c-21,0-32-10.8-34.4-26.4H2089.7z"/>
				<path d="M2237.2,4871.4c0,8.5,0.1,21.2,0.2,25.3h-11.2c-0.3-2.3-0.5-7.8-0.5-14.1c-3.9,9.9-12.5,16.2-27.1,16.2
					c-13.5,0-28.5-6-28.5-31.5V4810h11.4v54.6c0,12.1,3.8,23.5,19.7,23.5c17.8,0,24.6-10,24.6-33.3V4810h11.5L2237.2,4871.4
					L2237.2,4871.4z"/>
				<path d="M2331.2,4879.1c0,7.7,0.7,14.9,1.2,17.6h-11.1c-0.7-2-1.2-6-1.5-12.4c-3,6.1-10.3,14.5-27.7,14.5
					c-20.3,0-28.9-13.1-28.9-26.2c0-19.2,14.9-27.9,40.8-27.9c6.7,0,12.3,0,15.7,0v-8.2c0-8.2-2.5-18.8-20.7-18.8
					c-16.1,0-18.6,8.3-20.4,15.2h-11.3c1.1-10.6,7.7-24.9,32-24.9c20.4,0,31.8,8.5,31.8,27.8V4879.1z M2319.9,4853.3
					c-3.1,0-10.4,0-15.6,0c-18.3,0-29.1,4.9-29.1,18.6c0,10.1,7.1,17.1,18.5,17.1c23,0,26.2-15.4,26.2-32.7L2319.9,4853.3
					L2319.9,4853.3z"/>
				<path d="M2419.7,4863.8c3.4,15.3,13.7,24,32.4,24c20.5,0,28.5-10,28.5-22.3c0-12.9-6-20.6-31.4-26.8
					c-26.7-6.6-37.2-15.5-37.2-32.6c0-16.7,12.3-31.4,38.5-31.4c27.4,0,38.9,16.3,40.4,31.5h-12.6c-2.5-11.9-10.1-20.9-28.4-20.9
					c-16.1,0-25,7.4-25,19.9c0,12.4,7.4,17.2,29.1,22.5c34,8.4,39.5,21.8,39.5,36.7c0,18.5-13.5,33.7-42.1,33.7
					c-30.1,0-42-17.1-44.4-34.2L2419.7,4863.8L2419.7,4863.8z"/>
				<path d="M2526,4855.1c0.1,20.2,10.3,33.5,26.1,33.5c15.1,0,20.1-8.2,23.1-15h11.7c-3.5,11.3-12.8,25.1-35.2,25.1
					c-26.8,0-37.4-22.5-37.4-44.6c0-25.2,12.6-46.2,38.4-46.2c27.3,0,36.1,22.8,36.1,40.1c0,2.5,0,4.8-0.2,7.1H2526z M2576.9,4846.2
					c-0.2-15.8-8.5-28.4-24.5-28.4c-16.7,0-24.2,11.6-25.9,28.4H2576.9z"/>
				<path d="M2682.8,4889.9c0,27.7-11.9,42.9-38.5,42.9c-24.2,0-33-13.6-34.9-26.1h11.8c2.8,10.8,11.7,16.2,23.6,16.2
					c21.2,0,26.8-13.6,26.8-34.7v-8.1c-4.6,10.6-12.9,16.4-28.1,16.4c-20.8,0-35.9-16.9-35.9-43.1c0-28.7,16.6-45.4,37.2-45.4
					c17.2,0,24.5,8.1,26.7,14.5c0.2-4.5,0.4-10.4,0.6-12.4h10.9c0,4-0.3,16.8-0.3,25.1L2682.8,4889.9L2682.8,4889.9z M2619.7,4852.9
					c0,19.6,10.3,33.3,25.8,33.3c20.3,0,26.4-13.5,26.4-34.6c0-21.3-6.1-33.5-25.9-33.5C2627.9,4818.2,2619.7,4833.6,2619.7,4852.9z
					"/>
				<path d="M2781.9,4871.4c0,8.5,0.1,21.2,0.2,25.3h-11.2c-0.3-2.3-0.5-7.8-0.5-14.1c-3.9,9.9-12.5,16.2-27.1,16.2
					c-13.5,0-28.5-6-28.5-31.5V4810h11.4v54.6c0,12.1,3.8,23.5,19.7,23.5c17.8,0,24.6-10,24.6-33.3V4810h11.5L2781.9,4871.4
					L2781.9,4871.4z"/>
				<path d="M2814.1,4833.6c0-13.4-0.1-19.9-0.2-23.6h11.3c0.2,2.6,0.4,8.7,0.4,18.6c4.8-12.4,15.5-20.1,29.7-20.7v11.9
					c-17.9,0.9-29.7,11.9-29.7,33.1v43.7h-11.5L2814.1,4833.6L2814.1,4833.6z"/>
				<path d="M2939.1,4879.1c0,7.7,0.7,14.9,1.2,17.6h-11.1c-0.7-2-1.2-6-1.5-12.4c-3,6.1-10.3,14.5-27.7,14.5
					c-20.3,0-28.9-13.1-28.9-26.2c0-19.2,14.9-27.9,40.8-27.9c6.7,0,12.3,0,15.7,0v-8.2c0-8.2-2.5-18.8-20.7-18.8
					c-16.1,0-18.6,8.3-20.4,15.2h-11.3c1.1-10.6,7.7-24.9,32-24.9c20.4,0,31.8,8.5,31.8,27.8V4879.1z M2927.8,4853.3
					c-3.1,0-10.4,0-15.6,0c-18.3,0-29.1,4.9-29.1,18.6c0,10.1,7.1,17.1,18.5,17.1c23,0,26.2-15.4,26.2-32.7L2927.8,4853.3
					L2927.8,4853.3z"/>
				<path d="M2971.6,4831.8c0-7.6,0-15-0.2-21.8h11.3c0.4,2.7,0.6,13,0.5,15.5c3.7-8.2,10.7-17.5,28.1-17.5c15.8,0,29,9.2,29,32.8
					v56h-11.5v-54.3c0-14.4-5.8-23.9-20.1-23.9c-18.7,0-25.5,15-25.5,33.2v45h-11.5V4831.8z"/>
				<path d="M3138.3,4870.7c-3.9,15.1-14,28-34.6,28c-22.7,0-37.8-16.6-37.8-45c0-24.1,13.2-45.8,38.9-45.8
					c23.4,0,32.2,16.6,33.6,28.3h-11.6c-2.4-9.5-8.5-18.2-22.2-18.2c-17,0-26.6,14.5-26.6,35.2c0,20.2,9.1,35.3,25.9,35.3
					c11.8,0,18.9-6.1,22.9-17.9L3138.3,4870.7L3138.3,4870.7z M3111.3,4896.7l-7.1,9.2c6.3,0.8,17.4,4.3,17.4,15.9
					c0,13.3-11.6,16.4-20.1,16.4c-6.2,0-10.2-1.1-12.5-2.2v-9.3c3.1,1.4,8.9,2.2,11.9,2.2c6.5,0,9.8-2.2,9.8-6.6
					c0-6.9-9.2-8.5-18.9-8.5v-4.3l10.6-14.5L3111.3,4896.7z"/>
				<path d="M3224.5,4879.1c0,7.7,0.7,14.9,1.2,17.6h-11.1c-0.7-2-1.2-6-1.5-12.4c-3,6.1-10.3,14.5-27.7,14.5
					c-20.3,0-28.9-13.1-28.9-26.2c0-19.2,14.9-27.9,40.8-27.9c6.7,0,12.3,0,15.7,0v-8.2c0-8.2-2.5-18.8-20.7-18.8
					c-16.1,0-18.6,8.3-20.4,15.2h-11.3c1.1-10.6,7.7-24.9,32-24.9c20.4,0,31.8,8.5,31.8,27.8V4879.1z M3213.2,4853.3
					c-3.1,0-10.4,0-15.6,0c-18.3,0-29.1,4.9-29.1,18.6c0,10.1,7.1,17.1,18.5,17.1c23,0,26.2-15.4,26.2-32.7L3213.2,4853.3
					L3213.2,4853.3z"/>
				<path d="M3401.8,4863.7c-5.5,19.7-20.1,34.4-46.4,34.4c-35.2,0-53.3-27.4-53.3-61.3c0-32.5,18-62.1,53.7-62.1
					c27,0,42.3,15.2,46.1,35.3h-12.3c-5-14.5-14.4-24.6-34.4-24.6c-28.4,0-40.1,25.9-40.1,51.1c0,24.8,11.4,50.9,40.8,50.9
					c19.1,0,28.2-10.4,33.6-23.7L3401.8,4863.7L3401.8,4863.7z"/>
				<path d="M3428.1,4770h11.5v17.7h-11.5V4770z M3428.1,4810h11.5v86.7h-11.5V4810z"/>
				<path d="M3472,4770h11.5v53.6c4-8.1,12.3-15.6,28.7-15.6c21,0,35.5,17.3,35.5,43.6c0,26.9-13.4,47.2-37.8,47.2
					c-14.3,0-22.1-5.5-26.5-14.7c0,5-0.2,10.3-0.5,12.7h-11.2c0.2-9.8,0.2-19.6,0.2-29.4L3472,4770L3472,4770z M3535.7,4851.7
					c0-20.3-9.7-33.6-25.5-33.6c-20.2,0-27.3,13.6-27.3,35.4c0,19.4,6.3,35,26.4,35C3525.8,4888.5,3535.7,4874.6,3535.7,4851.7z"/>
				<path d="M3578.5,4855.1c0.1,20.2,10.3,33.5,26.1,33.5c15.1,0,20.1-8.2,23.1-15h11.7c-3.5,11.3-12.8,25.1-35.2,25.1
					c-26.8,0-37.4-22.5-37.4-44.6c0-25.2,12.6-46.2,38.4-46.2c27.3,0,36.1,22.8,36.1,40.1c0,2.5,0,4.8-0.2,7.1H3578.5z
					 M3629.4,4846.2c-0.2-15.8-8.5-28.4-24.5-28.4c-16.7,0-24.2,11.6-25.9,28.4H3629.4z"/>
				<path d="M3666.7,4833.6c0-13.4-0.1-19.9-0.2-23.6h11.3c0.2,2.6,0.4,8.7,0.4,18.6c4.8-12.4,15.5-20.1,29.7-20.7v11.9
					c-17.9,0.9-29.7,11.9-29.7,33.1v43.7h-11.5L3666.7,4833.6L3666.7,4833.6z"/>
				<path d="M3730,4831.8c0-7.6,0-15-0.2-21.8h11.3c0.4,2.7,0.6,13,0.5,15.5c3.7-8.2,10.7-17.5,28.1-17.5c15.8,0,29,9.2,29,32.8v56
					h-11.5v-54.3c0-14.4-5.8-23.9-20.1-23.9c-18.7,0-25.5,15-25.5,33.2v45H3730V4831.8z"/>
				<path d="M3836,4855.1c0.1,20.2,10.3,33.5,26.1,33.5c15.1,0,20.1-8.2,23.1-15h11.7c-3.5,11.3-12.8,25.1-35.2,25.1
					c-26.8,0-37.4-22.5-37.4-44.6c0-25.2,12.6-46.2,38.4-46.2c27.3,0,36.1,22.8,36.1,40.1c0,2.5,0,4.8-0.2,7.1H3836z M3886.9,4846.2
					c-0.2-15.8-8.5-28.4-24.5-28.4c-16.7,0-24.2,11.6-25.9,28.4H3886.9z M3890.9,4768.2l-26,26.8h-11.5l22.9-26.8H3890.9z"/>
				<path d="M3912,4810h15.6v-26.4h11.5v26.4h19.9v10h-19.9v53.8c0,9.1,2.1,14.1,10.2,14.1c2.4,0,5.8-0.1,8.4-0.9v9.3
					c-3.3,1.3-7.9,1.6-11.8,1.6c-12.2,0-18.3-6.2-18.3-20.3V4820H3912V4810z"/>
				<path d="M3981.3,4770h11.5v17.7h-11.5V4770z M3981.3,4810h11.5v86.7h-11.5V4810z"/>
				<path d="M4091.1,4870.7c-3.9,15.1-14,28-34.6,28c-22.7,0-37.8-16.6-37.8-45c0-24.1,13.2-45.8,38.9-45.8
					c23.4,0,32.2,16.6,33.6,28.3h-11.6c-2.4-9.5-8.5-18.2-22.2-18.2c-17,0-26.6,14.5-26.6,35.2c0,20.2,9.1,35.3,25.9,35.3
					c11.8,0,18.9-6.1,22.9-17.9L4091.1,4870.7L4091.1,4870.7z"/>
				<path d="M4177.3,4879.1c0,7.7,0.7,14.9,1.2,17.6h-11.1c-0.7-2-1.2-6-1.5-12.4c-3,6.1-10.3,14.5-27.7,14.5
					c-20.3,0-28.9-13.1-28.9-26.2c0-19.2,14.9-27.9,40.8-27.9c6.7,0,12.3,0,15.7,0v-8.2c0-8.2-2.5-18.8-20.7-18.8
					c-16.1,0-18.6,8.3-20.4,15.2h-11.3c1.1-10.6,7.7-24.9,32-24.9c20.4,0,31.8,8.5,31.8,27.8V4879.1z M4166,4853.3
					c-3.1,0-10.4,0-15.6,0c-18.3,0-29.1,4.9-29.1,18.6c0,10.1,7.1,17.1,18.5,17.1c23,0,26.2-15.4,26.2-32.7L4166,4853.3L4166,4853.3
					z"/>
			</g>
		</g>
	</g>
	<g id="icon">
		<g>
			<path class="st6" d="M4428.2,478.1c24.7,361.1,24.1,1081-339,1873.8c-473.3,1033.5-1271.3,1554.4-1579.9,1734.4
				c0-1350.3,0-2700.7,0-4051c217.3,1.2,467.3,18.2,740.8,65.6C3736,185,4133.5,336.8,4428.2,478.1z"/>
			<path class="st7" d="M590.4,478c-24.7,361.1-24.1,1081,339,1873.8c473.3,1033.5,1271.3,1554.4,1579.9,1734.4
				c0-1350.3,0-2700.7,0-4051c-217.3,1.2-467.3,18.2-740.8,65.6C1282.6,184.9,885,336.7,590.4,478z"/>
		</g>
		<g>
			<path class="st8" d="M2509.6,3676.1C1446,3019,932.5,2059.7,969.2,798.1c943.1-459.7,2041.5-470.7,2992.2-33.3L2503,2207.7
				L2136.4,1831l-268,291.2l642.7,631L4028.8,1223C3963.3,2260.5,3457,3078.2,2509.6,3676.1"/>
			<path class="st8" d="M2508.9,3676.5c1063.6-657.1,1577.1-1616.4,1540.4-2878c-943.1-459.7-2041.5-470.7-2992.2-33.3
				l1458.3,1442.9l366.6-376.7l268,291.2l-642.7,631L989.7,1223.4C1055.2,2260.9,1561.6,3078.6,2508.9,3676.5"/>
			<rect x="1603.3" y="1603.3" class="st8" width="1807.4" height="1170.2"/>
		</g>
		<g id="letters">
			<polygon class="st9" points="3488.1,1284.5 2521.5,763.9 2521.5,3357.5 3488.1,2367.6 3190,2374.5 2802.2,2799.6 2802.2,1172.7 
				3488.1,1554.7 			"/>
			<polygon class="st9" points="2488.9,763.9 2488.9,1164.5 1833.2,1425.4 1833.2,1693.3 2488.9,1442.9 2490.1,3357.5 
				1530.4,2351.3 1830.9,2353.6 2233.8,2783.3 2233.8,1894.7 1530.4,2142.8 1530.4,1286.8 			"/>
		</g>
	</g>
</g>
</svg>
